# xmcd CD database file
#
# Track frame offsets:
#	182
#	12342
#	23357
#	36180
#	49210
#	62580
#	75145
#	88742
#	100397
#	114732
#	125977
#	138867
#
# Disc length: 2033 seconds
#
# Revision: 6
# Processed by: cddbd v1.5.2PL0 Copyright (c) Steve Scherf et al.
# Submitted via: CDex 1.50beta9
#
DISCID=9507ef0c
DTITLE=Various Artist - 1960's #1 R&B Hits
DYEAR=2000
DGENRE=R&B
TTITLE0=Otis Redding - (Sittin' On) The Dock Of The Bay
TTITLE1=Aretha Franklin - Respect
TTITLE2=Isley Brothers - It's Your Thing
TTITLE3=Percy Sledge - When A Man Loves A Woman
TTITLE4=Ben E. King - Stand By Me
TTITLE5=Diana Ross and The Supremes - You Can't Hurry Love
TTITLE6=Jackie Wilson - (You're Love Keeps Lifting Me) Higher And Higher
TTITLE7=Wilson Pickett - In The Midnight Hour
TTITLE8=Archie Bell and The Drells - Tighten Up
TTITLE9=Sam and Dave - Hold On I'm Comin'
TTITLE10=Booker T. and The MG's - Green Onions
TTITLE11=Eddie Floyd - Knock On Wood
EXTD=YEAR: 2000
EXTT0=
EXTT1=
EXTT2=
EXTT3=
EXTT4=
EXTT5=
EXTT6=
EXTT7=
EXTT8=
EXTT9=
EXTT10=
EXTT11=
PLAYORDER=
